<?xml version="1.0" standalone="no"?>
<!DOCTYPE svg PUBLIC "-//W3C//DTD SVG 20010904//EN"
 "http://www.w3.org/TR/2001/REC-SVG-20010904/DTD/svg10.dtd">
<svg version="1.0" xmlns="http://www.w3.org/2000/svg"
 width="962.000000pt" height="962.000000pt" viewBox="0 0 962.000000 962.000000"
 preserveAspectRatio="xMidYMid meet">

<g transform="translate(0.000000,962.000000) scale(0.100000,-0.100000)"
fill="#000000" stroke="none">
<path fill="#fff" d="M4308 9126 c-20 -7 -54 -26 -75 -43 -84 -65 -186 -126 -284 -168 -56
-24 -132 -62 -168 -83 -174 -103 -330 -197 -365 -221 -21 -14 -57 -37 -80 -51
-153 -92 -500 -390 -681 -585 -55 -59 -122 -130 -148 -159 -46 -49 -292 -379
-374 -501 -112 -167 -335 -592 -393 -750 -10 -27 -44 -112 -75 -189 -32 -76
-57 -150 -57 -165 0 -14 -6 -33 -12 -41 -32 -38 -162 -584 -190 -795 -42 -318
-67 -583 -61 -644 3 -35 8 -112 11 -170 8 -177 74 -654 110 -795 54 -210 170
-608 191 -655 14 -31 54 -123 90 -206 107 -251 208 -431 377 -678 45 -65 97
-147 116 -183 20 -37 56 -83 87 -109 28 -25 95 -94 148 -155 106 -120 360
-357 470 -436 114 -83 490 -332 521 -346 16 -6 72 -37 124 -68 107 -64 237
-126 246 -117 7 7 -43 666 -61 795 -8 56 -12 123 -8 147 3 25 3 45 -1 45 -12
0 -56 -44 -56 -57 0 -7 -37 -31 -82 -54 -46 -23 -94 -51 -108 -64 -45 -41 -65
-40 -111 3 l-42 39 87 59 c48 32 142 98 209 145 67 47 154 103 192 124 39 21
93 55 122 77 29 21 62 38 75 38 13 0 124 -16 248 -37 124 -20 233 -34 241 -31
13 5 17 32 23 140 27 545 28 652 4 848 -8 66 -13 219 -12 410 0 269 3 320 22
430 59 329 112 474 372 1014 202 422 286 675 349 1056 54 331 59 381 66 660 4
151 9 278 11 282 10 16 -29 469 -56 658 -33 225 -44 264 -150 550 -108 290
-119 310 -392 705 -49 70 -116 149 -185 216 -98 97 -113 108 -161 118 -66 14
-78 13 -124 -3z m-459 -332 c-15 -15 -35 -24 -45 -22 -15 3 -12 7 16 25 48 29
60 28 29 -3z m410 -944 c-13 -22 -29 -40 -36 -40 -18 0 -17 5 10 45 32 50 55
46 26 -5z m481 -594 c0 -56 -15 -68 -24 -18 -9 54 -8 62 9 62 11 0 15 -12 15
-44z m-2940 -1211 c0 -46 -14 -60 -25 -26 -5 18 9 71 20 71 3 0 5 -20 5 -45z"/>
<path fill="#fff"  d="M5138 9092 c-13 -5 8 -23 86 -70 128 -78 244 -199 348 -363 62 -97
215 -402 251 -499 78 -212 143 -510 168 -770 29 -295 6 -907 -51 -1370 -34
-271 -97 -523 -196 -774 -64 -163 -156 -400 -221 -569 -37 -96 -50 -120 -73
-132 -56 -29 -346 -611 -446 -895 -218 -616 -249 -803 -229 -1403 l7 -229 33
-14 c36 -15 231 -74 525 -159 107 -31 203 -64 213 -72 12 -12 17 -32 17 -75 0
-69 16 -65 -180 -38 -181 25 -206 25 -219 1 -7 -13 -7 -56 1 -135 10 -106 9
-120 -8 -157 -18 -41 -18 -43 14 -273 37 -267 55 -461 46 -504 -3 -17 -1 -32
5 -36 6 -4 82 2 168 13 87 11 174 18 193 15 22 -3 59 2 98 15 35 11 92 26 127
32 49 8 84 24 150 65 47 31 114 67 148 82 83 35 223 116 382 219 161 106 232
159 315 238 36 34 83 74 105 88 41 27 242 235 319 330 185 226 380 512 448
657 46 98 103 210 127 254 39 68 91 204 187 484 72 209 102 314 129 450 20 97
49 236 65 307 33 149 47 245 55 365 3 47 10 146 15 220 40 547 -23 1167 -175
1735 -75 280 -87 318 -188 570 -136 343 -359 751 -552 1012 -137 185 -397 484
-590 678 -78 77 -384 269 -630 393 -220 111 -466 200 -660 238 -71 14 -160 39
-197 55 -66 29 -97 34 -130 21z m2440 -1868 c18 -37 31 -68 29 -71 -6 -6 -77
108 -77 124 0 29 17 9 48 -53z m-1509 -236 c-2 -87 -2 -89 -9 -38 -12 80 -11
130 0 130 6 0 9 -37 9 -92z m1854 -2393 l6 -60 -20 24 c-19 23 -25 74 -13 106
10 26 20 0 27 -70z m-520 -282 c-13 -37 -97 -171 -105 -167 -9 6 -3 20 46 112
21 39 45 72 52 72 8 0 11 -6 7 -17z m-2380 -1420 c-11 -72 -12 -74 -34 -63
-22 12 -19 41 9 73 22 24 30 21 25 -10z"/>
<path fill="#fff" d="M4529 1422 c-42 -10 -88 -26 -103 -35 -32 -22 -33 -49 -6 -205 10
-62 28 -211 40 -330 11 -119 25 -227 30 -238 6 -17 23 -24 72 -33 52 -9 261
-31 306 -31 18 0 15 50 -18 343 -58 509 -55 486 -84 515 -22 23 -36 27 -93 29
-39 1 -101 -5 -144 -15z"/>
</g>
</svg>
